<svg fill="none" height="24" viewBox="0 0 24 24" width="24" xmlns="http://www.w3.org/2000/svg"><path d="m16.19 2h-8.38c-3.64 0-5.81 2.17-5.81 5.81v8.37c0 3.65 2.17 5.82 5.81 5.82h8.37c3.64 0 5.81-2.17 5.81-5.81v-8.38c.01-3.64-2.16-5.81-5.8-5.81zm-6.25 11.27c-.68 1.02-1.62 1.85-2.72 2.4-.1.05-.22.08-.33.08-.28 0-.54-.15-.67-.41-.19-.37-.04-.82.34-1.01.87-.43 1.61-1.09 2.14-1.89.18-.27.18-.61 0-.88-.54-.8-1.28-1.46-2.14-1.89-.38-.18-.53-.63-.34-1.01.18-.37.63-.52 1-.33 1.1.55 2.04 1.38 2.72 2.4.52.77.52 1.77 0 2.54zm7.06 2.48h-4c-.41 0-.75-.34-.75-.75s.34-.75.75-.75h4c.41 0 .75.34.75.75s-.34.75-.75.75z" fill="#292d32"/></svg>